<svg width="115" height="115" viewBox="0 0 115 115" fill="none" xmlns="http://www.w3.org/2000/svg">
<rect width="115" height="115" fill="#101010"/>
<path d="M62.864 96.784C62.352 96.784 62.096 96.368 62.096 95.536C62.096 94.384 62.544 92.72 63.44 90.544C64.4 88.432 65.744 85.776 67.472 82.576L74.192 70C70.096 73.52 65.04 76.688 59.024 79.504C55.184 81.36 51.12 82.864 46.832 84.016C42.544 85.168 38.416 85.744 34.448 85.744C27.536 85.744 22.16 84.144 18.32 80.944C14.48 77.744 12.56 73.52 12.56 68.272C12.56 58.48 18.48 48.528 30.32 38.416C33.2 35.984 36.464 33.68 40.112 31.504C43.76 29.328 47.6 27.44 51.632 25.84C55.664 24.176 59.696 22.896 63.728 22C67.76 21.04 71.568 20.56 75.152 20.56C78.16 20.56 80.976 20.976 83.6 21.808C86.288 22.64 88.464 23.856 90.128 25.456C91.856 26.992 92.72 28.912 92.72 31.216C92.72 33.136 92.08 35.024 90.8 36.88C89.52 38.736 87.856 40.4 85.808 41.872C83.824 43.344 81.648 44.528 79.28 45.424C76.976 46.32 74.736 46.768 72.56 46.768C66.736 46.768 63.76 43.632 63.632 37.36C63.504 34.16 64.048 32.56 65.264 32.56C66.352 32.56 66.768 33.936 66.512 36.688C65.872 41.936 68.08 44.56 73.136 44.56C74.864 44.56 76.72 44.24 78.704 43.6C80.688 42.96 82.512 42.064 84.176 40.912C85.904 39.76 87.312 38.48 88.4 37.072C89.488 35.664 90.032 34.192 90.032 32.656C90.032 30.736 89.328 29.2 87.92 28.048C86.576 26.832 84.816 25.936 82.64 25.36C80.528 24.784 78.256 24.496 75.824 24.496C70.64 24.496 65.424 25.328 60.176 26.992C54.928 28.592 49.872 30.864 45.008 33.808C40.144 36.688 35.728 40.048 31.76 43.888C22.608 52.848 18.032 61.072 18.032 68.56C18.032 73.04 19.696 76.624 23.024 79.312C26.416 81.936 30.832 83.248 36.272 83.248C40.624 83.248 45.072 82.416 49.616 80.752C54.16 79.088 58.48 77.072 62.576 74.704C70.896 70.032 77.136 65.072 81.296 59.824L84.08 55.696C83.248 55.696 81.616 55.792 79.184 55.984C76.816 56.176 73.584 56.432 69.488 56.752C65.2 57.072 61.808 57.392 59.312 57.712C56.88 57.968 55.344 58.16 54.704 58.288C53.936 58.48 53.168 58.576 52.4 58.576C50.288 58.576 49.232 58.064 49.232 57.04C49.232 55.44 52.048 54.032 57.68 52.816C59.664 52.368 62.736 52.048 66.896 51.856C71.056 51.6 76.304 51.472 82.64 51.472C93.264 51.472 100.432 51.92 104.144 52.816C104.72 52.88 105.008 53.04 105.008 53.296C105.008 53.936 102.8 54.448 98.384 54.832L93.68 55.216C91.888 55.408 90.64 55.504 89.936 55.504C83.408 64.016 74.96 77.264 64.592 95.248C64.016 96.272 63.44 96.784 62.864 96.784Z" fill="white"/>
<mask id="path-3-inside-1_82_28" fill="white">
<path d="M5 5H45V45H5V5Z"/>
</mask>
<path d="M5 5V2H2V5H5ZM5 5V8H45V5V2H5V5ZM5 45H8V5H5H2V45H5Z" fill="white" mask="url(#path-3-inside-1_82_28)"/>
<mask id="path-5-inside-2_82_28" fill="white">
<path d="M5 71H45V110H5V71Z"/>
</mask>
<path d="M5 110H2V113H5V110ZM45 110V107H5V110V113H45V110ZM5 110H8V71H5H2V110H5Z" fill="white" mask="url(#path-5-inside-2_82_28)"/>
<mask id="path-7-inside-3_82_28" fill="white">
<path d="M69 71H110V110H69V71Z"/>
</mask>
<path d="M110 110V113H113V110H110ZM110 71H107V110H110H113V71H110ZM110 110V107H69V110V113H110V110Z" fill="white" mask="url(#path-7-inside-3_82_28)"/>
<mask id="path-9-inside-4_82_28" fill="white">
<path d="M69 5H110V44H69V5Z"/>
</mask>
<path d="M110 5H113V2H110V5ZM69 5V8H110V5V2H69V5ZM110 5H107V44H110H113V5H110Z" fill="white" mask="url(#path-9-inside-4_82_28)"/>
</svg>
